<svg data-v-423bf9ae="" xmlns="http://www.w3.org/2000/svg" viewBox="0 0 173 90" class="iconLeft"><!----><!----><!----><g data-v-423bf9ae="" id="3e6063e8-62fa-4141-9fcf-7912295c044a" fill="white" transform="matrix(6.451612109324288,0,0,6.451612109324288,102.06452037442062,-12.225800317234935)"><path d="M10.86 13.52L10.86 4.22L9.68 4.22L6.04 8.05L2.41 4.22L1.23 4.22L1.23 13.52L3.79 13.52L3.79 8.74L5.66 10.79L6.43 10.79L8.30 8.74L8.30 13.52Z"></path></g><!----><g data-v-423bf9ae="" id="c3ebcad4-7d4c-4ab4-b7b2-3a1eb737f222" transform="matrix(2.8125,0,0,2.8125,0,1.0290013551712036)" stroke="none" fill="white"><path d="M0 31.984h32v-32H0v32zm2-30h28v28H2v-28z"></path><path d="M6.439 16.831h8.959l-4.48-7.741zM16.602 13.331h8.959L21.082 5.59zM6.439 26.41h8.959l-4.48-7.741zM16.602 22.91h8.959l-4.479-7.741z"></path></g><!----></svg>