<svg id="visual" viewBox="0 0 900 600" width="900" height="600" xmlns="http://www.w3.org/2000/svg" xmlns:xlink="http://www.w3.org/1999/xlink" version="1.1"><path d="M0 433L21.5 426.2C43 419.3 86 405.7 128.8 401.3C171.7 397 214.3 402 257.2 408.7C300 415.3 343 423.7 385.8 422.8C428.7 422 471.3 412 514.2 404.5C557 397 600 392 642.8 397.3C685.7 402.7 728.3 418.3 771.2 422.3C814 426.3 857 418.7 878.5 414.8L900 411L900 601L878.5 601C857 601 814 601 771.2 601C728.3 601 685.7 601 642.8 601C600 601 557 601 514.2 601C471.3 601 428.7 601 385.8 601C343 601 300 601 257.2 601C214.3 601 171.7 601 128.8 601C86 601 43 601 21.5 601L0 601Z" fill="#0066FF" stroke-linecap="round" stroke-linejoin="miter"></path></svg>